<svg xmlns="http://www.w3.org/2000/svg" xmlns:xlink="http://www.w3.org/1999/xlink" width="300" zoomAndPan="magnify" viewBox="0 0 224.87999 44.999999" height="60" preserveAspectRatio="xMidYMid meet" version="1.0"><defs><clipPath id="1a5294fa3e"><path d="M 25 9 L 79 9 L 79 44.988281 L 25 44.988281 Z M 25 9 " clip-rule="nonzero"/></clipPath><clipPath id="215849e3a0"><path d="M 0 0.0117188 L 53 0.0117188 L 53 37 L 0 37 Z M 0 0.0117188 " clip-rule="nonzero"/></clipPath><clipPath id="1b8322740d"><path d="M 90.394531 8 L 161 8 L 161 38 L 90.394531 38 Z M 90.394531 8 " clip-rule="nonzero"/></clipPath><clipPath id="9a2007fdaa"><path d="M 163 6.558594 L 220 6.558594 L 220 31 L 163 31 Z M 163 6.558594 " clip-rule="nonzero"/></clipPath></defs><g clip-path="url(#1a5294fa3e)"><path fill="#032e2e" d="M 64.28125 9.402344 C 64.816406 9.359375 65.703125 9.378906 66.257812 9.378906 L 69.699219 9.378906 C 71.683594 9.378906 73.640625 9.351562 75.648438 9.417969 C 77.164062 9.464844 78.324219 10.648438 78.15625 12.210938 C 78.117188 12.582031 77.914062 13.039062 77.726562 13.375 C 76.828125 15.007812 75.878906 16.621094 74.953125 18.238281 L 69.3125 27.984375 L 64.355469 36.453125 C 63.210938 38.417969 62.097656 40.382812 60.878906 42.304688 C 59.910156 43.828125 58.753906 44.5625 56.9375 44.734375 C 55.558594 44.863281 54.152344 44.808594 52.761719 44.808594 L 45.648438 44.8125 L 40.453125 44.8125 C 37.121094 44.824219 35.328125 45.203125 33.222656 42.164062 C 31.6875 39.71875 30.296875 37.117188 28.835938 34.617188 C 27.957031 33.011719 26.871094 31.5 26.136719 29.828125 C 25.375 28.097656 26.601562 26.566406 28.386719 26.488281 C 29.683594 26.429688 30.960938 26.480469 32.246094 26.476562 L 37.210938 26.453125 C 42.609375 26.433594 41.9375 26.484375 44.621094 31.179688 C 45.53125 32.789062 46.457031 34.382812 47.398438 35.972656 C 51.089844 29.757812 54.644531 23.425781 58.28125 17.175781 C 59.027344 15.882812 59.761719 14.582031 60.476562 13.273438 C 61.414062 11.570312 62.09375 9.632812 64.28125 9.402344 Z M 64.28125 9.402344 " fill-opacity="1" fill-rule="nonzero"/></g><g clip-path="url(#215849e3a0)"><path fill="#3bbf6b" d="M 21.910156 0.511719 C 22.25 0.453125 23.976562 0.46875 24.417969 0.46875 L 29.808594 0.480469 L 36.996094 0.484375 C 38.195312 0.484375 39.402344 0.46875 40.601562 0.496094 C 43.808594 0.578125 44.722656 2.507812 46.125 4.921875 L 48.769531 9.476562 C 49.402344 10.558594 50.046875 11.632812 50.699219 12.703125 C 51.234375 13.578125 52.050781 14.746094 52.308594 15.660156 C 52.808594 17.613281 51.351562 18.777344 49.523438 18.761719 C 45.621094 18.726562 41.734375 18.804688 37.839844 18.695312 C 36.269531 18.648438 35.53125 16.925781 34.816406 15.71875 C 34.09375 14.503906 33.390625 13.273438 32.699219 12.039062 C 32.300781 11.324219 31.601562 10.21875 31.3125 9.488281 L 24.910156 20.625 L 19.183594 30.628906 C 18.601562 31.636719 17.03125 34.550781 16.359375 35.226562 C 16.015625 35.578125 15.574219 35.820312 15.09375 35.917969 C 14.089844 36.125 11.253906 36.03125 10.097656 36.035156 C 7.882812 36.019531 5.671875 36.046875 3.457031 36.050781 C 3.050781 36.050781 2.652344 36.011719 2.257812 35.902344 C 1.222656 35.621094 0.503906 34.632812 0.539062 33.558594 C 0.554688 33.144531 0.664062 32.738281 0.855469 32.371094 C 1.242188 31.640625 1.789062 30.78125 2.214844 30.058594 C 2.980469 28.785156 3.730469 27.503906 4.46875 26.214844 L 12.394531 12.464844 L 15.5625 6.871094 C 16.257812 5.636719 16.917969 4.390625 17.660156 3.179688 C 18.726562 1.4375 19.910156 0.757812 21.910156 0.511719 Z M 21.910156 0.511719 " fill-opacity="1" fill-rule="nonzero"/></g><g clip-path="url(#1b8322740d)"><path fill="#032e2e" d="M 98.003906 30.09375 C 96.574219 30.09375 95.28125 29.84375 94.128906 29.347656 C 92.992188 28.851562 92.09375 28.140625 91.425781 27.207031 C 90.761719 26.273438 90.417969 25.175781 90.398438 23.90625 L 94.804688 23.90625 C 94.863281 24.757812 95.15625 25.433594 95.683594 25.925781 C 96.230469 26.421875 96.976562 26.671875 97.914062 26.671875 C 98.875 26.671875 99.628906 26.445312 100.175781 25.988281 C 100.722656 25.511719 101 24.894531 101 24.140625 C 101 23.527344 100.8125 23.023438 100.441406 22.625 C 100.066406 22.226562 99.597656 21.921875 99.03125 21.703125 C 98.484375 21.464844 97.71875 21.207031 96.742188 20.929688 C 95.410156 20.53125 94.324219 20.144531 93.480469 19.769531 C 92.660156 19.371094 91.945312 18.785156 91.339844 18.011719 C 90.75 17.21875 90.457031 16.167969 90.457031 14.859375 C 90.457031 13.628906 90.761719 12.558594 91.367188 11.644531 C 91.976562 10.734375 92.828125 10.039062 93.921875 9.5625 C 95.019531 9.066406 96.269531 8.820312 97.679688 8.820312 C 99.792969 8.820312 101.507812 9.34375 102.820312 10.394531 C 104.148438 11.429688 104.882812 12.875 105.019531 14.742188 L 100.5 14.742188 C 100.460938 14.027344 100.15625 13.441406 99.589844 12.984375 C 99.039062 12.507812 98.308594 12.269531 97.386719 12.269531 C 96.585938 12.269531 95.9375 12.480469 95.449219 12.894531 C 94.980469 13.3125 94.746094 13.917969 94.746094 14.710938 C 94.746094 15.265625 94.921875 15.730469 95.273438 16.109375 C 95.644531 16.464844 96.09375 16.761719 96.625 17 C 97.171875 17.21875 97.933594 17.476562 98.914062 17.773438 C 100.246094 18.171875 101.332031 18.570312 102.171875 18.964844 C 103.015625 19.363281 103.738281 19.957031 104.34375 20.75 C 104.953125 21.542969 105.253906 22.585938 105.253906 23.875 C 105.253906 24.984375 104.972656 26.015625 104.402344 26.96875 C 103.835938 27.921875 103.003906 28.683594 101.910156 29.261719 C 100.8125 29.816406 99.511719 30.09375 98.003906 30.09375 Z M 124.378906 13.402344 L 114.308594 37.679688 L 109.933594 37.679688 L 113.457031 29.46875 L 106.941406 13.402344 L 111.550781 13.402344 L 115.746094 24.917969 L 120.003906 13.402344 Z M 135.609375 13.164062 C 137.546875 13.164062 139.113281 13.789062 140.304688 15.039062 C 141.5 16.269531 142.097656 17.992188 142.097656 20.214844 L 142.097656 29.886719 L 137.988281 29.886719 L 137.988281 20.78125 C 137.988281 19.472656 137.664062 18.46875 137.019531 17.773438 C 136.371094 17.0625 135.492188 16.703125 134.375 16.703125 C 133.242188 16.703125 132.339844 17.0625 131.675781 17.773438 C 131.027344 18.46875 130.707031 19.472656 130.707031 20.78125 L 130.707031 29.886719 L 126.59375 29.886719 L 126.59375 13.402344 L 130.707031 13.402344 L 130.707031 15.453125 C 131.253906 14.742188 131.949219 14.183594 132.789062 13.789062 C 133.652344 13.371094 134.589844 13.164062 135.609375 13.164062 Z M 144.949219 21.644531 C 144.949219 19.9375 145.292969 18.449219 145.976562 17.179688 C 146.660156 15.890625 147.613281 14.898438 148.824219 14.203125 C 150.039062 13.492188 151.429688 13.132812 152.992188 13.132812 C 155.011719 13.132812 156.671875 13.648438 157.984375 14.679688 C 159.316406 15.691406 160.207031 17.121094 160.65625 18.964844 L 156.222656 18.964844 C 155.988281 18.25 155.585938 17.695312 155.019531 17.300781 C 154.472656 16.882812 153.785156 16.675781 152.964844 16.675781 C 151.789062 16.675781 150.859375 17.109375 150.175781 17.984375 C 149.492188 18.835938 149.148438 20.054688 149.148438 21.644531 C 149.148438 23.210938 149.492188 24.429688 150.175781 25.304688 C 150.859375 26.15625 151.789062 26.582031 152.964844 26.582031 C 154.628906 26.582031 155.714844 25.828125 156.222656 24.320312 L 160.65625 24.320312 C 160.207031 26.105469 159.316406 27.523438 157.984375 28.574219 C 156.652344 29.628906 154.992188 30.152344 152.992188 30.152344 C 151.429688 30.152344 150.039062 29.804688 148.824219 29.109375 C 147.613281 28.398438 146.660156 27.40625 145.976562 26.136719 C 145.292969 24.847656 144.949219 23.347656 144.949219 21.644531 Z M 144.949219 21.644531 " fill-opacity="1" fill-rule="nonzero"/></g><g clip-path="url(#9a2007fdaa)"><path fill="#3bbf6b" d="M 170.742188 30.09375 C 169.316406 30.09375 168.023438 29.84375 166.867188 29.347656 C 165.734375 28.851562 164.832031 28.140625 164.167969 27.207031 C 163.503906 26.273438 163.160156 25.175781 163.140625 23.90625 L 167.542969 23.90625 C 167.601562 24.757812 167.894531 25.433594 168.425781 25.925781 C 168.972656 26.421875 169.714844 26.671875 170.65625 26.671875 C 171.613281 26.671875 172.367188 26.445312 172.917969 25.988281 C 173.464844 25.511719 173.738281 24.894531 173.738281 24.140625 C 173.738281 23.527344 173.554688 23.023438 173.179688 22.625 C 172.808594 22.226562 172.339844 21.921875 171.773438 21.703125 C 171.222656 21.464844 170.460938 21.207031 169.480469 20.929688 C 168.152344 20.53125 167.0625 20.144531 166.222656 19.769531 C 165.402344 19.371094 164.6875 18.785156 164.078125 18.011719 C 163.492188 17.21875 163.199219 16.167969 163.199219 14.859375 C 163.199219 13.628906 163.503906 12.558594 164.109375 11.644531 C 164.714844 10.734375 165.566406 10.039062 166.664062 9.5625 C 167.757812 9.066406 169.011719 8.820312 170.421875 8.820312 C 172.535156 8.820312 174.246094 9.34375 175.558594 10.394531 C 176.890625 11.429688 177.625 12.875 177.761719 14.742188 L 173.238281 14.742188 C 173.199219 14.027344 172.898438 13.441406 172.328125 12.984375 C 171.78125 12.507812 171.046875 12.269531 170.128906 12.269531 C 169.324219 12.269531 168.679688 12.480469 168.191406 12.894531 C 167.71875 13.3125 167.484375 13.917969 167.484375 14.710938 C 167.484375 15.265625 167.660156 15.730469 168.011719 16.109375 C 168.386719 16.464844 168.835938 16.761719 169.363281 17 C 169.914062 17.21875 170.675781 17.476562 171.652344 17.773438 C 172.984375 18.171875 174.070312 18.570312 174.914062 18.964844 C 175.753906 19.363281 176.480469 19.957031 177.085938 20.75 C 177.691406 21.542969 177.996094 22.585938 177.996094 23.875 C 177.996094 24.984375 177.710938 26.015625 177.144531 26.96875 C 176.578125 27.921875 175.746094 28.683594 174.648438 29.261719 C 173.554688 29.816406 172.25 30.09375 170.742188 30.09375 Z M 191.191406 29.886719 L 185.671875 22.863281 L 185.671875 29.886719 L 181.558594 29.886719 L 181.558594 7.867188 L 185.671875 7.867188 L 185.671875 20.394531 L 191.132812 13.402344 L 196.472656 13.402344 L 189.3125 21.671875 L 196.535156 29.886719 Z M 200.789062 11.4375 C 200.066406 11.4375 199.460938 11.210938 198.96875 10.753906 C 198.5 10.277344 198.265625 9.691406 198.265625 8.996094 C 198.265625 8.304688 198.5 7.726562 198.96875 7.273438 C 199.460938 6.796875 200.066406 6.558594 200.789062 6.558594 C 201.515625 6.558594 202.109375 6.796875 202.582031 7.273438 C 203.070312 7.726562 203.316406 8.304688 203.316406 8.996094 C 203.316406 9.691406 203.070312 10.277344 202.582031 10.753906 C 202.109375 11.210938 201.515625 11.4375 200.789062 11.4375 Z M 202.816406 13.402344 L 202.816406 29.886719 L 198.707031 29.886719 L 198.707031 13.402344 Z M 210.988281 7.867188 L 210.988281 29.886719 L 206.875 29.886719 L 206.875 7.867188 Z M 219.160156 7.867188 L 219.160156 29.886719 L 215.046875 29.886719 L 215.046875 7.867188 Z M 219.160156 7.867188 " fill-opacity="1" fill-rule="nonzero"/></g></svg>
